<?xml version="1.0" encoding="utf-8"?>
<!-- Generator: Adobe Illustrator 25.4.1, SVG Export Plug-In . SVG Version: 6.00 Build 0)  -->
<svg version="1.1" id="Layer_1" xmlns="http://www.w3.org/2000/svg" xmlns:xlink="http://www.w3.org/1999/xlink" x="0px" y="0px"
	 viewBox="0 0 500 500" style="enable-background:new 0 0 500 500;" xml:space="preserve">
<style type="text/css">
	.st0{fill:#C69C6D;}
	.st1{fill:#00A99D;}
	.st2{opacity:0.85;fill:#CCCCCC;}
	.st3{opacity:0.85;fill:#E6E6E6;}
	.st4{fill:#FBB03B;}
	.st5{fill:#F7931E;}
	.st6{opacity:0.5;fill:#F7931E;}
	.st7{fill:#E6E6E6;}
	.st8{fill:#FF7BAC;}
	.st9{opacity:0.4;fill:#ED1C24;}
	.st10{opacity:0.4;fill:#F15A24;}
</style>
<polygon class="st0" points="173.01,357.59 173.01,450.22 250.26,496.53 327.51,450.22 327.51,357.59 250.26,311.27 "/>
<polygon class="st0" points="173.01,264.96 173.01,357.59 250.26,403.9 327.51,357.59 327.51,264.96 250.26,218.64 "/>
<polygon class="st1" points="424,123.16 424,222.55 250.26,311.27 76.52,222.54 76.52,123.16 246.25,39.76 "/>
<polygon class="st1" points="366.24,58.67 366.24,125.02 250.26,184.25 134.28,125.02 134.28,58.67 247.58,3 "/>
<polygon class="st2" points="250.26,110.43 366.24,58.67 366.24,96.06 366.24,125.02 250.26,184.25 "/>
<polygon class="st3" points="424,123.16 250.26,218.64 250.26,184.25 366.24,125.02 "/>
<polyline class="st2" points="250.26,218.64 250.26,311.27 424,222.55 424,123.16 250.26,218.64 "/>
<polyline class="st3" points="248.92,56.72 366.24,58.67 250.26,110.43 248.92,56.72 "/>
<polygon class="st4" points="250.26,110.43 134.28,58.67 248.92,56.72 "/>
<polygon class="st5" points="134.28,58.67 134.28,125.02 250.26,184.25 250.26,110.43 "/>
<polygon class="st4" points="134.28,125.02 76.52,123.16 250.26,217.22 250.26,184.25 "/>
<polygon class="st5" points="76.52,222.54 250.26,311.27 250.26,217.22 76.52,123.16 "/>
<polyline class="st6" points="134.28,125.02 134.28,94.78 76.52,123.16 "/>
<polygon class="st6" points="134.28,58.67 247.58,3 248.92,56.72 "/>
<path class="st7" d="M247.58,3"/>
<path class="st7" d="M247.58,3"/>
<path class="st7" d="M247.58,3"/>
<polygon class="st8" points="247.58,3 248.92,56.72 366.24,58.67 "/>
<polygon class="st8" points="366.24,96.06 366.24,125.02 424,123.16 "/>
<polygon class="st9" points="327.51,271.82 250.26,311.27 250.26,496.53 327.51,450.22 "/>
<polygon class="st10" points="173.01,271.82 173.01,450.22 250.26,496.53 250.26,311.27 "/>
</svg>
